<?xml version="1.0" standalone="no"?>
<!DOCTYPE svg PUBLIC "-//W3C//DTD SVG 20010904//EN"
 "http://www.w3.org/TR/2001/REC-SVG-20010904/DTD/svg10.dtd">
<svg version="1.0" xmlns="http://www.w3.org/2000/svg"
 width="812.000000pt" height="812.000000pt" viewBox="0 0 812.000000 812.000000"
 preserveAspectRatio="xMidYMid meet">
<metadata>
Created by potrace 1.11, written by Peter Selinger 2001-2013
</metadata>
<g transform="translate(0.000000,812.000000) scale(0.100000,-0.100000)"
fill="#000000" stroke="none">
<path d="M7085 8085 c-176 -18 -394 -40 -485 -49 -91 -9 -232 -23 -315 -31
-82 -8 -312 -31 -510 -50 -198 -19 -425 -42 -505 -50 -399 -39 -389 -39 -489
-21 -107 18 -313 21 -411 5 -77 -12 -177 -40 -280 -79 -66 -25 -109 -32 -350
-55 -151 -14 -340 -32 -420 -40 -80 -8 -239 -24 -355 -35 -115 -11 -273 -27
-350 -35 -77 -8 -223 -22 -325 -31 -102 -9 -190 -18 -196 -19 -6 -2 -445 -503
-975 -1114 -802 -925 -965 -1118 -971 -1149 -4 -20 -7 -848 -7 -1838 l-1
-1802 1173 -822 c644 -453 1180 -832 1190 -843 16 -18 22 -19 90 -9 39 6 178
27 307 47 129 19 276 42 325 50 50 8 135 21 190 29 55 8 161 25 235 36 156 24
180 28 755 115 237 36 520 79 630 96 371 56 659 99 850 129 105 16 296 45 425
65 129 19 278 42 330 50 52 8 201 31 330 50 261 39 339 51 645 99 l210 32 7
130 c4 71 14 316 23 544 21 580 43 1131 55 1425 14 337 37 948 50 1290 6 154
13 303 15 330 l6 50 -413 207 c-227 115 -672 338 -988 498 -316 159 -575 288
-576 287 -1 -1 -14 -31 -28 -66 -35 -86 -77 -150 -136 -205 -63 -59 -128 -88
-201 -89 l-56 0 -27 -63 c-15 -34 -47 -92 -71 -129 l-45 -67 73 -79 c88 -94
169 -206 230 -314 52 -93 113 -233 104 -241 -3 -3 -55 -12 -117 -19 -61 -7
-112 -14 -114 -16 -3 -2 2 -29 10 -59 19 -73 19 -258 -1 -333 -32 -121 -82
-203 -153 -248 -56 -35 -123 -39 -181 -10 -133 69 -220 323 -181 531 6 29 8
55 6 58 -3 2 -100 -8 -218 -22 -117 -14 -269 -33 -338 -41 -69 -9 -199 -24
-289 -35 -90 -11 -166 -21 -167 -23 -2 -1 4 -41 12 -87 25 -135 4 -291 -52
-402 -108 -213 -311 -212 -419 3 -45 87 -59 162 -58 302 l0 127 -31 -5 c-77
-13 -360 -44 -365 -40 -5 5 23 143 41 207 8 28 19 40 49 54 45 20 48 30 14 46
-28 13 -28 15 12 113 60 144 180 326 307 462 l67 72 -35 54 c-19 30 -52 88
-73 130 -20 43 -43 77 -50 77 -7 0 -34 -16 -60 -37 -84 -63 -146 -86 -253 -90
-77 -4 -106 -1 -152 16 -121 42 -216 128 -270 246 -19 43 -23 67 -23 165 0
109 2 119 32 183 36 76 116 163 181 196 l42 21 4 -22 c3 -13 10 -52 16 -88 12
-70 54 -206 71 -230 8 -12 9 -11 5 5 -31 113 -37 316 -12 432 19 88 55 179 97
244 30 47 132 149 149 149 4 0 10 46 12 103 3 94 5 107 30 139 56 73 -25 68
1167 68 894 0 1077 -2 1105 -14 47 -20 87 -76 95 -134 l6 -49 335 324 c184
178 380 366 436 418 l101 95 358 40 c197 22 359 41 360 42 3 4 65 626 65 656
0 12 -3 21 -7 21 -5 -1 -152 -16 -328 -34z m-2520 -245 c-3 -5 -13 -10 -21
-10 -8 0 -14 5 -14 10 0 6 9 10 21 10 11 0 17 -4 14 -10z m-2198 -2378 c6 -4
26 -39 45 -77 26 -55 37 -70 53 -68 11 1 50 5 87 9 95 9 100 -8 24 -85 -31
-31 -56 -61 -56 -67 0 -6 14 -42 31 -79 16 -37 28 -74 25 -81 -8 -22 -42 -17
-99 16 -30 17 -61 30 -71 30 -9 0 -41 -23 -71 -51 -85 -80 -98 -68 -80 76 l7
60 -71 39 c-59 31 -72 42 -69 59 2 17 13 24 46 29 23 5 61 11 84 16 l42 7 14
75 c16 91 29 111 59 92z"/>
<path d="M4096 5798 c-22 -30 -20 -54 5 -79 27 -27 66 -21 92 12 17 24 18 30
6 55 -19 40 -79 47 -103 12z m74 -14 c0 -16 -16 -19 -25 -4 -8 13 4 32 16 25
5 -4 9 -13 9 -21z"/>
<path d="M4985 5804 c-25 -25 -16 -75 18 -94 24 -13 30 -13 55 0 55 31 35 110
-28 110 -16 0 -36 -7 -45 -16z m27 -26 c-15 -15 -26 -4 -18 18 5 13 9 15 18 6
9 -9 9 -15 0 -24z"/>
<path d="M4493 5765 c-229 -51 -382 -277 -344 -508 39 -238 262 -401 502 -367
305 43 470 373 327 653 -84 166 -299 264 -485 222z"/>
</g>
</svg>
